<?xml version="1.0" encoding="UTF-8" standalone="no"?>
<svg
   xmlns:dc="http://purl.org/dc/elements/1.1/"
   xmlns:cc="http://creativecommons.org/ns#"
   xmlns:rdf="http://www.w3.org/1999/02/22-rdf-syntax-ns#"
   xmlns:svg="http://www.w3.org/2000/svg"
   xmlns="http://www.w3.org/2000/svg"
   viewBox="0 0 257.33334 257.33334"
   height="257.33334"
   width="257.33334"
   xml:space="preserve"
   id="svg2"
   version="1.1"><metadata
     id="metadata8"><rdf:RDF><cc:Work
         rdf:about=""><dc:format>image/svg+xml</dc:format><dc:type
           rdf:resource="http://purl.org/dc/dcmitype/StillImage" /></cc:Work></rdf:RDF></metadata><defs
     id="defs6" /><g
     transform="matrix(1.3333333,0,0,-1.3333333,0,257.33333)"
     id="g10"><g
       transform="scale(0.1)"
       id="g12"><path
         id="path14"
         style="fill:#ffffff;fill-opacity:1;fill-rule:evenodd;stroke:none"
         d="M 0,1927.56 H 1927.56 V 0 H 0 v 1927.56" /><path
         id="path16"
         style="fill:#231f20;fill-opacity:1;fill-rule:evenodd;stroke:none"
         d="m 963.781,1842.52 c 297.359,0 538.499,-393.51 538.499,-878.739 0,-485.234 -241.14,-878.7419 -538.499,-878.7419 -297.355,0 -538.504,393.5079 -538.504,878.7419 0,485.229 241.149,878.739 538.504,878.739" /><path
         id="path18"
         style="fill:#ffffff;fill-opacity:1;fill-rule:evenodd;stroke:none"
         d="m 963.781,1774.83 c 279.489,0 506.149,-358.64 506.149,-800.889 0,-442.242 -226.66,-800.886 -506.149,-800.886 -279.488,0 -506.144,358.644 -506.144,800.886 0,442.249 226.656,800.889 506.144,800.889" /><path
         id="path20"
         style="fill:#231f20;fill-opacity:1;fill-rule:evenodd;stroke:none"
         d="m 963.777,1749.68 c 31.282,0 61.853,-4.86 91.473,-14.03 v -282.06 c -31.26,2.32 -63.148,3.52 -95.539,3.52 -29.59,0 -58.746,-1.02 -87.406,-2.95 v 281.49 c 29.621,9.17 60.187,14.03 91.472,14.03 z m 225.013,-90.26 c 74.92,-64.1 138.08,-159.1 182.94,-274.45 v -0.42 c -53.71,21.02 -112.8,38.02 -175.87,50.29 -2.13,34.24 -4.48,67.86 -7.07,100.82 z M 555.824,1388.18 c 43.137,109.73 102.895,200.82 173.571,264.12 v -116.71 c -2.59,-32.95 -4.946,-66.54 -7.067,-100.75 -59.422,-11.55 -115.312,-27.31 -166.504,-46.66" /><path
         id="path22"
         style="fill:#231f20;fill-opacity:1;fill-rule:evenodd;stroke:none"
         d="M 714.027,1086.27 C 655.816,1058.02 601.152,1020.15 551.137,974.184 V 635.098 C 594.789,519.836 658.141,424.355 734.082,359.461 v 149.328 c -13.074,158.496 -20.328,333.156 -20.328,516.681 0,20.38 0.098,40.65 0.273,60.8 z m 345.293,50.12 c -31.27,5.45 -63.144,8.31 -95.543,8.31 -29.589,0 -58.75,-2.41 -87.406,-6.95 V 814.488 c 27.828,13.821 57.129,21.231 87.406,21.231 33.235,0 65.313,-8.922 95.543,-25.465 z m 317.1,-162.206 c -50.02,45.976 -104.68,83.816 -162.89,112.086 0.17,-20.15 0.27,-40.42 0.27,-60.8 0,-183.548 -7.25,-358.236 -20.33,-516.751 V 352.668 c 74.93,61.141 138.08,151.762 182.95,261.777 v 359.739" /><path
         id="path24"
         style="fill:#fab80a;fill-opacity:1;fill-rule:evenodd;stroke:none"
         d="m 957.074,1195.96 c 176.176,0 345.476,-39.77 482.936,-107.7 1.91,-26.87 2.93,-54.15 2.93,-81.81 0,-10.274 -0.17,-20.481 -0.44,-30.653 -137.93,118.143 -308,187.363 -485.426,187.363 -177.422,0 -336.937,-64.92 -472.289,-176.324 -0.105,6.519 -0.168,13.055 -0.168,19.614 0,29.96 1.192,59.5 3.434,88.53 134.707,63.82 292.847,100.98 469.023,100.98" /><path
         id="path26"
         style="fill:#231f20;fill-opacity:1;fill-rule:evenodd;stroke:none"
         d="M 1064.09,614.434 H 863.461 c -23.648,0 -42.996,-17.504 -42.996,-38.903 v -66.875 c 0,-96.328 34.086,-151.398 143.312,-242.265 109.233,90.867 143.313,145.937 143.313,242.265 v 66.875 c 0,21.399 -19.34,38.903 -43,38.903" /><path
         id="path28"
         style="fill:#ffffff;fill-opacity:1;fill-rule:evenodd;stroke:none"
         d="m 897.246,591.453 c 0,0 7.555,-11.914 5.555,-13.246 -3.028,-1.984 -12.957,4.277 -12.957,4.277 0,0 6.535,-14.156 10.289,-19.757 1.515,-2.204 4.98,-3.813 6.031,-6.688 4.215,-11.246 -9.363,-28.562 3.41,-36.359 4.207,-2.606 9.594,-1.164 14.395,1.238 0,0 1.504,0.859 2.375,0.398 2.344,-1.179 -0.324,-6.941 -0.66,-7.824 -5.293,-12.207 -9.868,-5.801 -15.743,-0.64 -11.921,10.48 -12.796,-4.352 -16.523,-5.692 -13.492,-4.773 -11.988,0.762 -16.41,-1.211 -2.785,-1.164 -3.231,-6.851 -4.047,-9.601 -1.66,-5.551 -5.586,-19.782 6.719,-15.5 7.179,2.496 9.363,20.418 16.328,11.32 8.387,-10.957 -2.938,-22.086 8.465,-35.094 3.121,-3.554 6.742,-5.199 10.398,-1.457 1.289,1.321 2.656,3.227 3.176,4.996 0.582,2.059 0.832,5.442 -0.188,8.496 -2.339,6.758 -8.113,7.067 -6.086,16.422 2.512,0.567 2.844,0.715 5.368,-0.691 4.336,-2.402 10.773,-3.863 14.285,-7.317 5.726,-5.566 10.34,-11.914 17.523,-15.863 2.153,-4.652 -2.828,-10.578 -4.457,-13.156 -2.836,-4.524 -6.699,-10.445 -7.773,-15.969 -2.098,-10.328 7.812,-20.93 -3.52,-24.547 -13.133,-4.14 -34.629,-0.843 -35.984,-15.078 -0.274,-2.648 -0.879,-6.988 1.195,-9.551 1.668,-2.007 6.274,-3.711 9.164,-3.726 11.047,0.101 1.219,11.984 10.071,14.758 4.339,1.32 9.398,-1.594 12.886,-1.879 3.844,-0.289 8.832,-0.047 12.164,0.074 13.231,0.43 15.352,5.762 21.903,9.82 8.554,5.348 16.187,-9.418 19.222,-14.965 2.395,-4.546 8.657,-6.586 10.5,-11.589 2.008,-5.457 2.184,-13.829 1.535,-18.43 -0.582,-3.938 -4.613,-3.367 -6.234,-6.352 -2.644,-4.847 -3.613,-25.347 4.418,-28.086 6.371,-2.101 17.341,5.297 15.121,11.161 -0.65,1.835 -3.74,3.246 -4.12,5.347 -2.69,13.84 20.78,25.547 21.39,28.852 1.02,5.258 -7.8,4.469 -5.87,15.636 1.33,8.145 9.71,13.641 13.54,20.2 2.06,3.5 1.27,10.09 3.83,13.254 2.14,2.617 5.81,3.55 7.44,6.531 8.88,16.453 -1.4,42.094 -7.94,60.355 -1.88,5.297 -12.03,26.618 -5.37,29.149 1.68,0.656 2.75,-0.133 3.67,-0.188 3.85,-4.066 1.35,-10.316 3.34,-14.867 2.71,-6.125 10.64,-8.926 16.21,-11.418 -0.59,-0.488 1.19,-0.195 1.25,-0.215 -1.6,3.539 -2.98,6.219 -3.05,10.446 -0.16,11.644 -1.85,20.82 -9.31,26.027 -3.75,2.605 -10.31,4.633 -15.71,1.773 -22.12,-11.574 -0.33,-47.652 5.32,-66.894 2.52,-8.457 -3.4,-13.449 -10.37,-10.309 -5.67,2.555 -8.62,16.051 -10.37,22.586 -6.94,26.117 -16.618,73.172 -28.724,86.848 -11.093,12.597 -40.507,18.57 -60.226,22.164 -3.172,0.582 -8.235,1.242 -11.395,2.512 -2.578,1.043 -15.449,9.519 -15.449,9.519" /><path
         id="path30"
         style="fill:#231f20;fill-opacity:1;fill-rule:nonzero;stroke:none"
         d="m 1345.16,1201.16 0.03,0.02 -0.01,0.01 z m -0.03,100.87 34.82,-11.67 v 3.02 c 0,7.16 -0.31,13.36 -0.94,18.59 -0.62,5.14 -1.53,9.32 -2.73,12.52 -1.2,3.19 -3.03,6.36 -5.51,9.53 -2.51,3.22 -5.71,6.45 -9.57,9.67 v 0.01 c -5.53,4.6 -11.94,8.51 -19.21,11.74 -1.47,0.65 -2.92,1.25 -4.36,1.81 -1.47,0.56 -2.99,1.11 -4.54,1.63 l -0.06,0.02 -0.03,0.01 c -7.17,2.41 -13.56,3.65 -19.13,3.75 -1.04,0.02 -2.09,0 -3.15,-0.07 -0.97,-0.06 -1.95,-0.17 -2.93,-0.32 l -0.13,-0.02 v 0.01 c -3.28,-0.53 -6.11,-1.52 -8.44,-2.95 -2.26,-1.39 -4.09,-3.23 -5.47,-5.49 v -0.02 c -1.44,-2.34 -2.54,-5.75 -3.3,-10.21 -0.79,-4.66 -1.18,-10.43 -1.18,-17.26 0,-4.73 0.27,-9.12 0.83,-13.14 v -0.01 c 0.54,-3.98 1.38,-7.64 2.49,-10.98 v -0.02 c 1.59,-4.82 3.49,-9.08 5.67,-12.75 0.41,-0.7 0.85,-1.39 1.29,-2.06 v -0.01 c 0.39,-0.59 0.86,-1.25 1.35,-1.91 l -2.34,-1.85 2.35,1.82 v -0.01 l 0.01,0.01 c 1.71,-2.29 4.35,-5.43 7.93,-9.44 3.61,-4.05 8.13,-8.94 13.55,-14.66 h -0.01 c 5.54,-5.79 10.01,-10.64 13.4,-14.5 l -0.01,-0.01 c 3.52,-4.02 6.02,-7.15 7.49,-9.39 v -0.01 c 1.33,-2.07 2.36,-4.73 3.09,-7.97 0.12,-0.52 0.25,-1.16 0.38,-1.89 h 0.01 c 0.7,-3.88 1.05,-8.61 1.07,-14.16 v 0 -0.16 c 0,-3.84 -0.42,-6.94 -1.26,-9.31 -0.19,-0.53 -0.4,-1.02 -0.61,-1.46 h -0.01 c -0.21,-0.43 -0.48,-0.85 -0.76,-1.27 l 0.01,-0.01 -0.04,-0.05 -2.41,1.75 2.39,-1.78 c -1.15,-1.63 -2.63,-2.67 -4.43,-3.09 -1.61,-0.38 -3.41,-0.24 -5.37,0.41 h -0.01 c -2.6,0.87 -4.67,2.23 -6.21,4.03 v 0.01 c -0.31,0.36 -0.6,0.74 -0.86,1.13 -0.25,0.38 -0.5,0.8 -0.71,1.23 l -0.04,0.07 -0.02,0.05 c -1.35,2.79 -2.03,7.84 -2.03,15.16 v 20.05 l -34.83,11.67 v -7.77 c 0,-6.75 0.31,-12.82 0.94,-18.19 0.61,-5.32 1.54,-9.98 2.76,-13.97 h -0.01 c 1.19,-3.84 3.06,-7.63 5.61,-11.36 2.6,-3.8 5.89,-7.52 9.87,-11.16 h 0.01 c 5.74,-5.26 12.34,-9.62 19.79,-13.06 1.37,-0.63 2.86,-1.27 4.48,-1.91 1.56,-0.62 3.12,-1.19 4.66,-1.71 v 0 l 0.06,-0.02 0.02,-0.01 c 5.16,-1.73 9.99,-2.84 14.46,-3.33 4.39,-0.49 8.49,-0.38 12.27,0.3 5.17,0.95 9.09,2.72 11.75,5.3 v -0.02 c 0.47,0.47 0.93,0.98 1.34,1.53 v 0.01 c 0.42,0.55 0.79,1.12 1.09,1.68 l 0.01,0.04 0.04,0.06 v 0 c 0.8,1.49 1.49,3.41 2.05,5.73 0.29,1.23 0.55,2.55 0.77,3.94 0.68,4.4 1.03,9.75 1.04,16.04 h -0.02 v 0.18 c 0,8.8 -0.61,16.56 -1.84,23.28 -1.21,6.62 -3.01,12.23 -5.41,16.83 -2.44,4.69 -6.66,10.56 -12.65,17.59 -6.07,7.12 -13.96,15.44 -23.68,24.95 -3.48,3.42 -6.3,6.45 -8.44,9.09 -2.23,2.76 -3.79,5.18 -4.65,7.25 -0.72,1.71 -1.29,3.64 -1.69,5.77 v 0.04 l -0.2,1.16 -0.01,0.04 c -0.4,2.54 -0.61,5.43 -0.61,8.61 v 0.16 c 0,3.75 0.4,6.77 1.2,9 v 0 c 0.18,0.52 0.38,0.98 0.58,1.37 0.24,0.49 0.5,0.92 0.76,1.29 l -0.02,-0.03 0.02,0.03 v 0 0 l 0.01,0.03 0.04,0.05 c 1.1,1.54 2.5,2.53 4.19,2.94 1.54,0.39 3.24,0.27 5.07,-0.34 1.57,-0.52 2.93,-1.27 4.09,-2.22 1.2,-1 2.16,-2.21 2.86,-3.63 v 0 c 0.56,-1.15 1,-2.68 1.31,-4.56 l 0.01,-0.06 0.14,-0.98 v -0.04 c 0.27,-2.16 0.42,-4.88 0.42,-8.14 h 0.02 v -0.24 z m -74.43,-47.09 v 119.93 l -38.89,9.99 v -130.94 c 0,-4.56 -0.1,-8.34 -0.31,-11.31 -0.21,-3.11 -0.58,-5.37 -1.07,-6.77 l -0.03,-0.07 c -1.04,-2.79 -2.99,-4.28 -5.86,-4.45 h -0.01 c -0.47,-0.03 -0.97,-0.01 -1.48,0.04 -0.49,0.06 -0.98,0.16 -1.46,0.27 l -0.05,0.01 -0.08,0.02 c -1.71,0.45 -3.17,1.23 -4.36,2.34 h -0.01 c -1.18,1.11 -2.06,2.52 -2.62,4.21 h -0.01 c -0.5,1.45 -0.87,3.63 -1.09,6.52 -0.21,2.72 -0.32,6.11 -0.32,10.14 v 134.82 l -38.84,9.99 v -104.37 h -0.01 c 0,-10.29 0.08,-18.84 0.25,-25.65 0.17,-6.68 0.43,-11.66 0.79,-14.95 v -0.01 c 0.31,-3.06 1.03,-6.16 2.1,-9.29 1.1,-3.19 2.57,-6.4 4.4,-9.63 v 0 c 1.83,-3.17 4.14,-6.23 6.94,-9.18 2.8,-2.96 6.1,-5.8 9.89,-8.53 v 0 c 5.39,-3.88 11.42,-7.03 18.08,-9.46 1.3,-0.47 2.63,-0.91 3.97,-1.33 1.34,-0.42 2.72,-0.81 4.13,-1.17 l 0.07,-0.02 c 6.32,-1.62 12.03,-2.35 17.09,-2.2 0.98,0.02 1.95,0.09 2.89,0.18 0.86,0.09 1.78,0.23 2.72,0.39 v 0 l 0.24,0.04 c 3.11,0.58 5.9,1.57 8.39,2.96 2.45,1.36 4.62,3.13 6.48,5.28 v 0.01 c 1.92,2.22 3.45,4.5 4.58,6.8 1.12,2.28 1.88,4.62 2.26,7.01 0.33,2.1 0.6,4.93 0.8,8.47 l 0.11,2.23 c 0.21,4.71 0.33,10.4 0.33,17.05 h -0.01 z m -113.05,114.56 v 30.48 l -93.92,13.61 v -30.46 l 24.49,-3.56 2.55,-0.37 v -2.64 -143.72 l 39.77,-5.77 v 142.87 3.49 l 3.35,-0.48 z m -110.51,-133.78 v 176.91 l -32.64,1.17 v -79.26 l -5.76,-0.93 -25.244,81.3 -33.414,1.21 v -176.91 l 32.637,-1.17 v 80.03 l 5.781,0.86 23.41,-81.94 z m -119.476,179.87 -70.859,-5.11 v -176.89 l 73.922,5.34 v 30.51 l -30.622,-2.21 -3.152,-0.23 v 3.27 40.23 2.83 l 2.762,0.2 25.973,1.88 v 28.73 l -25.583,-1.84 -3.152,-0.23 v 3.27 34.68 2.83 l 2.762,0.2 27.949,2.02 z M 820.68,1230.84 843,1411.7 l -41.781,-7.61 -2.922,-32.27 v -0.01 c -1.832,-19.77 -3.641,-41.71 -5.399,-65.82 l -1.015,-14.24 -0.996,-14.69 -0.02,-0.29 -5.887,-0.02 c -1.718,24.65 -4.226,53.17 -7.542,85.49 -0.614,5.97 -1.301,12.45 -2.04,19.37 -0.597,5.53 -1.226,11.33 -1.906,17.44 l -42.008,-7.63 25.348,-172.2 z m -128.981,-23.93 -0.023,-0.02 0.004,-0.01 z m 23.953,64.96 v 118.25 l -38.468,-11.38 V 1246.2 c 0,-4.55 -0.11,-8.38 -0.309,-11.46 -0.215,-3.19 -0.555,-5.57 -1.004,-7.12 l -0.016,-0.03 c -0.804,-2.63 -2.328,-4.65 -4.562,-6.02 l 0.004,-0.01 c -0.453,-0.27 -0.899,-0.52 -1.336,-0.7 -0.449,-0.2 -0.938,-0.39 -1.434,-0.54 l -0.035,-0.01 -0.07,-0.02 c -1.859,-0.55 -3.5,-0.54 -4.926,0.01 -1.617,0.64 -2.793,1.87 -3.508,3.68 l 0.012,0.01 c -0.531,1.3 -0.918,3.35 -1.141,6.11 -0.211,2.6 -0.316,5.94 -0.316,9.99 v 133.14 l -38.426,-11.36 v -105.96 h -0.012 c 0,-10.29 0.083,-18.8 0.25,-25.52 0.165,-6.56 0.426,-11.39 0.782,-14.48 v -0.03 c 0.308,-2.83 0.98,-5.45 1.996,-7.88 1.015,-2.42 2.406,-4.69 4.156,-6.82 v 0 c 1.672,-2 3.789,-3.66 6.336,-4.96 2.652,-1.35 5.793,-2.34 9.395,-2.95 5.214,-0.89 11.043,-0.74 17.484,0.46 1.211,0.22 2.523,0.51 3.91,0.84 1.27,0.31 2.629,0.68 4.063,1.1 h 0.011 l 0.223,0.06 v 0 c 6.348,1.88 12.125,4.36 17.269,7.39 h 0.008 c 1.004,0.59 1.989,1.21 2.926,1.83 0.957,0.63 1.883,1.28 2.766,1.93 l -0.004,0.01 0.051,0.04 1.742,-2.45 -1.719,2.46 c 3.219,2.4 6.133,5.05 8.734,7.96 2.598,2.9 4.883,6.06 6.852,9.45 1.973,3.39 3.555,6.65 4.75,9.77 1.16,3.03 1.941,5.9 2.34,8.62 v 0 c 0.332,2.35 0.597,5.34 0.797,8.97 l 0.113,2.28 c 0.207,4.83 0.324,10.58 0.328,17.25 h -0.012 z m -117.785,-34.74 v 117.95 l -37.484,-14.07 V 1214.4 h 0.012 c 0,-3.18 -0.032,-6.1 -0.102,-8.81 -0.063,-2.51 -0.168,-4.41 -0.309,-5.68 -0.175,-1.58 -0.578,-3.11 -1.211,-4.59 -0.601,-1.41 -1.441,-2.82 -2.503,-4.2 v -0.01 c -1.067,-1.39 -2.332,-2.61 -3.793,-3.66 -1.434,-1.04 -3.039,-1.9 -4.821,-2.56 -0.843,-0.32 -2.101,-0.73 -3.715,-1.21 v -25.36 l 17.77,6.67 c 6.742,2.54 12.277,5.02 16.555,7.43 l -0.004,0.01 c 0.859,0.48 1.64,0.95 2.32,1.37 0.703,0.44 1.352,0.86 1.93,1.27 l -0.004,0.01 0.027,0.02 0.078,0.07 c 3.137,2.24 5.825,4.94 8.024,8.06 h 0.008 c 0.398,0.56 0.812,1.19 1.23,1.88 v 0.01 c 0.438,0.72 0.816,1.38 1.133,1.97 l 0.019,0.04 c 1.805,3.42 3.059,6.85 3.746,10.3 h -0.007 c 0.14,0.74 0.261,1.45 0.351,2.08 0.086,0.67 0.164,1.33 0.215,2 v 0.05 0 l 0.02,0.26 v 0.01 c 0.175,2.7 0.312,6.96 0.394,12.74 0.082,5.32 0.121,12.87 0.121,22.56" /><path
         id="path32"
         style="fill:#231f20;fill-opacity:1;fill-rule:evenodd;stroke:none"
         d="m 1053.04,664.867 c 0.34,1.649 5.71,10.551 12.01,21.598 16.12,28.226 38.37,70.473 -1.48,41.625 -10.5,-7.598 -17.16,-19.313 -29.54,-15.442 l -0.01,0.012 c -12.36,3.875 -19.55,17.25 -15.42,29.531 10.88,32.313 -26.787,28.09 -27.323,2.86 -0.664,-31.613 -54.336,-31.613 -55,0 -0.531,25.23 -38.195,29.453 -27.324,-2.86 4.133,-12.281 -3.062,-25.656 -15.418,-29.531 l -0.008,-0.012 c -12.379,-3.871 -19.043,7.844 -29.543,15.442 -55.441,40.14 9.317,-57.352 10.539,-63.223 48.274,14.426 104.332,19.274 178.517,0" /></g></g></svg>